<svg xmlns="http://www.w3.org/2000/svg" viewBox="0 0 96.2 82.77">
  <defs>
    <style>
    .cls-1 {
      fill: #fff;
    }

    .cls-2 {
      fill: #8dc640;
    }
    </style>
  </defs>
  <g id="Layer_2" data-name="Layer 2">
    <g id="Layer_1-2" data-name="Layer 1">
      <g id="favicon">
        <path class="cls-1" d="M94.92,33.44H60.42a1.29,1.29,0,0,1-1.23-.9L49.33.9a1.28,1.28,0,0,0-2.45,0L37,32.54a1.28,1.28,0,0,1-1.23.9H1.29a1.28,1.28,0,0,0-.81,2.28l7.13,5.82a1.26,1.26,0,0,0,.81.29H41a1.29,1.29,0,0,0,1.23-.89l4.69-14.62a1.29,1.29,0,0,1,2.45,0L54,40.94a1.28,1.28,0,0,0,1.22.89H70.69a1.28,1.28,0,0,1,.77,2.31L59,53.46a1.29,1.29,0,0,0-.37,1.62l13.92,27A1.29,1.29,0,0,0,75,81.13L68.28,57.9a1.29,1.29,0,0,1,.46-1.38l19.5-14.69,7.49-6.11A1.28,1.28,0,0,0,94.92,33.44Z" />
        <path class="cls-2" d="M76.21,16l-42,39.17a.72.72,0,0,1-1,0l-6.48-6.48a.69.69,0,0,0-.51-.21H15.62a.72.72,0,0,0-.49,1.24L33.19,66.27a.71.71,0,0,0,1-.06L76.81,16.53A.41.41,0,0,0,76.21,16Z" />
      </g>
    </g>
  </g>
</svg>