<svg xmlns="http://www.w3.org/2000/svg" viewBox="0 0 146.03 51.11">
  <defs>
    <style>
    .cls-1 {
      fill: #fff;
    }

    .cls-2 {
      fill: #8dc640;
    }
    </style>
  </defs>
  <g id="Layer_2" data-name="Layer 2">
    <g id="Layer_1-2" data-name="Layer 1">
      <path class="cls-1" d="M58.61,20.65H37.31a.8.8,0,0,1-.76-.55L30.46.56A.79.79,0,0,0,29,.56L22.85,20.1a.78.78,0,0,1-.75.55H.79a.8.8,0,0,0-.5,1.41L4.7,25.65a.77.77,0,0,0,.5.18H25.3a.78.78,0,0,0,.75-.55l2.9-9a.79.79,0,0,1,1.51,0l2.9,9a.78.78,0,0,0,.75.55h9.54a.8.8,0,0,1,.48,1.43L36.45,33a.79.79,0,0,0-.23,1l8.6,16.67a.79.79,0,0,0,1.47-.58L42.16,35.75a.8.8,0,0,1,.29-.85l12-9.07,4.62-3.77A.79.79,0,0,0,58.61,20.65Z" />
      <path class="cls-2" d="M47.06,9.85,21.14,34a.43.43,0,0,1-.61,0l-4-4a.48.48,0,0,0-.32-.13H9.64a.45.45,0,0,0-.3.77L20.49,40.93a.45.45,0,0,0,.64,0l26.3-30.68A.26.26,0,0,0,47.06,9.85Z" />
      <path class="cls-1" d="M85.59,9.49v3.69a.23.23,0,0,1-.23.23H80.19a.23.23,0,0,0-.23.23V30.29a.23.23,0,0,1-.23.23H75a.23.23,0,0,1-.23-.23V13.64a.23.23,0,0,0-.23-.23H69.38a.23.23,0,0,1-.23-.23V9.49a.22.22,0,0,1,.23-.22h16A.22.22,0,0,1,85.59,9.49Z" />
      <path class="cls-1" d="M92.75,29.34a10.44,10.44,0,0,1-4-3.89,10.88,10.88,0,0,1-1.46-5.62,10.78,10.78,0,0,1,1.46-5.6,10.39,10.39,0,0,1,4-3.87,11.48,11.48,0,0,1,11,0,10.17,10.17,0,0,1,3.94,3.87,11,11,0,0,1,1.44,5.6,11,11,0,0,1-1.46,5.62,10.41,10.41,0,0,1-3.93,3.89,11.54,11.54,0,0,1-11,0Zm9.57-5a6.43,6.43,0,0,0,1.53-4.48,6.4,6.4,0,0,0-1.53-4.49,5.24,5.24,0,0,0-4.07-1.68,5.31,5.31,0,0,0-4.11,1.66,6.42,6.42,0,0,0-1.53,4.51,6.43,6.43,0,0,0,1.53,4.5A5.29,5.29,0,0,0,98.25,26,5.22,5.22,0,0,0,102.32,24.31Z" />
      <path class="cls-1" d="M127.34,19.48a6.16,6.16,0,0,1-2.6,2.47,9.13,9.13,0,0,1-4.36.94h-3a.23.23,0,0,0-.23.23v7.17a.23.23,0,0,1-.23.23h-4.72a.23.23,0,0,1-.23-.23V9.49a.22.22,0,0,1,.23-.22h8.16a9.64,9.64,0,0,1,4.3.87,6,6,0,0,1,2.63,2.43,7,7,0,0,1,.88,3.54A6.75,6.75,0,0,1,127.34,19.48Zm-5.14-1.4a2.62,2.62,0,0,0,.72-2,2.61,2.61,0,0,0-.72-2,3.13,3.13,0,0,0-2.21-.7H117.4a.23.23,0,0,0-.23.23v4.87a.23.23,0,0,0,.23.23H120A3.13,3.13,0,0,0,122.2,18.08Z" />
      <path class="cls-2" d="M144.61,14.06h-8.38a.24.24,0,0,0-.23.23v2.46a.6.6,0,0,0,.9.52,7.44,7.44,0,0,1,.69-.32,6.77,6.77,0,0,1,5.74.57,5.64,5.64,0,0,1,2,2.49,8.47,8.47,0,0,1,.65,3.32,7.22,7.22,0,0,1-1.87,5.25,7,7,0,0,1-5.27,1.94,9.19,9.19,0,0,1-3.93-.78,6,6,0,0,1-2.58-2.17,6.14,6.14,0,0,1-1-2.9.27.27,0,0,1,.27-.3h4.26a.23.23,0,0,1,.22.18,2.47,2.47,0,0,0,.78,1.28,2.56,2.56,0,0,0,1.78.58,2.35,2.35,0,0,0,2-.85,3.63,3.63,0,0,0,.65-2.26,3,3,0,0,0-.68-2.13,3,3,0,0,0-3.57-.27,2.23,2.23,0,0,0-.78,1.08.21.21,0,0,1-.2.16h-4.29a.23.23,0,0,1-.23-.23V10a.23.23,0,0,1,.23-.22h12.77a.22.22,0,0,1,.23.22v3.8A.22.22,0,0,1,144.61,14.06Z" />
      <path class="cls-1" d="M75,38.2v1h1.58v.91H75v1.07h1.79v.94H74.16a.35.35,0,0,1-.35-.34V37.6a.35.35,0,0,1,.35-.34h2.62v.94Z" />
      <path class="cls-1" d="M84.29,42.1h-1A.36.36,0,0,1,83,42l-1.87-2.84v3H80V37.26h1a.35.35,0,0,1,.29.15l1.87,2.85v-3h1.18Z" />
      <path class="cls-1" d="M90.6,37.26v3.3a1.56,1.56,0,0,1-.43,1.18,1.63,1.63,0,0,1-1.16.41,1.72,1.72,0,0,1-1.23-.43,1.62,1.62,0,0,1-.46-1.24h1.17a.74.74,0,0,0,.12.46.47.47,0,0,0,.36.16A.39.39,0,0,0,89.3,41a.6.6,0,0,0,.12-.4v-3.3Z" />
      <path class="cls-1" d="M95,41.83A2.4,2.4,0,0,1,94.1,41a2.52,2.52,0,0,1-.33-1.28,2.49,2.49,0,0,1,.33-1.28,2.4,2.4,0,0,1,.91-.88,2.55,2.55,0,0,1,1.25-.32,2.53,2.53,0,0,1,1.25.32,2.31,2.31,0,0,1,.9.88,2.49,2.49,0,0,1,.33,1.28A2.52,2.52,0,0,1,98.41,41a2.31,2.31,0,0,1-.9.88,2.43,2.43,0,0,1-1.25.32A2.45,2.45,0,0,1,95,41.83Zm2.18-1.14a1.68,1.68,0,0,0,0-2,1.33,1.33,0,0,0-1.86,0,1.68,1.68,0,0,0,0,2,1.33,1.33,0,0,0,1.86,0Z" />
      <path class="cls-1" d="M106,37.26l-1.64,3.17a.41.41,0,0,0,0,.16V42.1h-1.18V40.59a.42.42,0,0,0,0-.16l-1.64-3.17h1.12a.35.35,0,0,1,.31.2l.85,1.83.84-1.83a.33.33,0,0,1,.31-.2Z" />
      <path class="cls-1" d="M115.89,37.56a2.18,2.18,0,0,1,.88.85,2.52,2.52,0,0,1,.32,1.27,2.48,2.48,0,0,1-.32,1.26,2.11,2.11,0,0,1-.89.86,2.83,2.83,0,0,1-1.33.3h-1.47a.35.35,0,0,1-.35-.34V37.6a.35.35,0,0,1,.35-.34h1.47A2.88,2.88,0,0,1,115.89,37.56Zm-.38,3.16a1.41,1.41,0,0,0-1-2.45h-.56v2.81h.56A1.43,1.43,0,0,0,115.51,40.72Z" />
      <path class="cls-1" d="M121.34,38.2v1h1.59v.91h-1.59v1.07h1.79v.94h-2.62a.35.35,0,0,1-.35-.34V37.6a.35.35,0,0,1,.35-.34h2.62v.94Z" />
      <path class="cls-1" d="M129.33,41.25h-1.81l-.29.85H126l1.67-4.61a.34.34,0,0,1,.32-.23h.88a.35.35,0,0,1,.33.23l1.67,4.61h-1.25Zm-.3-.91-.6-1.78-.6,1.78Z" />
      <path class="cls-1" d="M135,40.85a.35.35,0,0,0,.35.34h1.2v.91h-2.38a.35.35,0,0,1-.35-.34v-4.5H135Z" />
      <path class="cls-1" d="M140.32,42a1.64,1.64,0,0,1-.67-.51,1.41,1.41,0,0,1-.27-.82h1.26a.59.59,0,0,0,.19.41.56.56,0,0,0,.41.15.59.59,0,0,0,.41-.13.41.41,0,0,0,.16-.33.42.42,0,0,0-.13-.3,1.21,1.21,0,0,0-.29-.19,4.7,4.7,0,0,0-.5-.17,6.78,6.78,0,0,1-.77-.29,1.4,1.4,0,0,1-.51-.43,1.2,1.2,0,0,1-.21-.74,1.27,1.27,0,0,1,.49-1.06,2,2,0,0,1,1.27-.38,2,2,0,0,1,1.29.38,1.36,1.36,0,0,1,.53,1.07H141.7a.52.52,0,0,0-.17-.37.62.62,0,0,0-.41-.14.47.47,0,0,0-.34.12.44.44,0,0,0,.09.69,3.54,3.54,0,0,0,.69.29,5.47,5.47,0,0,1,.76.3,1.68,1.68,0,0,1,.51.42,1.13,1.13,0,0,1,.21.71,1.37,1.37,0,0,1-.21.75,1.4,1.4,0,0,1-.61.54,2.15,2.15,0,0,1-.95.2A2.59,2.59,0,0,1,140.32,42Z" />
    </g>
  </g>
</svg>